<svg width="170" height="47" viewBox="0 0 170 47" fill="none" xmlns="http://www.w3.org/2000/svg">
<g clip-path="url(#clip0_770_19311)">
<path d="M110.253 22.9335L100.451 39.1067C99.8475 40.0605 99.1071 40.5443 98.216 40.5582C97.2975 40.572 96.8999 40.254 96.9959 39.6182C97.037 39.3694 97.1329 39.1344 97.2838 38.8994L106.908 22.9611L99.2168 23.0579L87.9201 41.7331C87.591 42.2584 87.3854 42.7422 87.3168 43.1569C87.2071 43.8896 87.3717 44.4701 87.8515 44.9125C88.3176 45.3548 89.058 45.576 90.0588 45.5622L99.8612 45.4516C100.643 45.4378 101.328 45.3963 101.931 45.3134C102.535 45.2304 103.097 45.0645 103.59 44.8157C104.097 44.5669 104.564 44.2352 104.989 43.7928C105.414 43.3643 105.839 42.7975 106.264 42.1064L117.931 22.8091L110.253 22.9335Z" fill="#343434"/>
<path d="M88.3588 28.1033L83.9717 35.3467L83.6701 35.8305L77.6789 45.728L69.9878 45.8247L75.9926 35.8996L76.4725 35.1117L80.6539 28.2001L74.9644 28.2692L77.9668 23.3066L96.3515 23.0854L93.3491 28.048L88.3588 28.1033Z" fill="#343434"/>
<path d="M152.63 35.6922L147.009 35.7614L144.404 40.0327L150.025 39.9636L147.023 44.9262L133.71 45.0782L140.579 33.7293L140.839 33.287L140.881 33.2179L141.169 32.7341L147.365 22.5048L160.677 22.3528L157.675 27.3153L152.054 27.3845L149.998 30.7988L155.619 30.7297L154.467 32.6373L154.179 33.1211L152.63 35.6922Z" fill="#343434"/>
<path d="M139.647 26.4586L135.836 32.7758L135.548 33.2596L128.35 45.1338L120.659 45.2306L127.87 33.3149L128.172 32.8311L130.42 29.1126C130.516 28.9606 130.571 28.7809 130.599 28.6012C130.708 27.9377 130.379 27.6197 129.598 27.6335L127.994 27.6474L117.314 45.272L109.623 45.3688L123.291 22.7954L137.495 22.6295C138.495 22.6157 139.236 22.8369 139.702 23.2792C140.168 23.7216 140.346 24.3298 140.223 25.0762C140.195 25.2559 140.127 25.4633 140.045 25.6845C139.962 25.9056 139.825 26.1683 139.647 26.4586Z" fill="#343434"/>
<path fill-rule="evenodd" clip-rule="evenodd" d="M58.1291 22.6432L51.0549 38.5262L50.8767 38.9409L50.5477 39.6735L47.696 46.0737L-0.493469 46.6543L5.90895 40.0329L6.62185 39.3003L21.9767 23.4173L22.4017 22.975L22.4428 22.9335L23.1557 22.2009L27.5154 17.6945L43.6243 17.501L39.5114 22.0488L38.771 22.8644L26.6106 36.3144L36.3307 36.2039L42.4727 22.975L42.5412 22.8368L42.5823 22.7538L42.9251 22.0074L47.1614 12.8564C47.2299 12.7181 47.2848 12.5937 47.3259 12.4693C47.367 12.3587 47.3944 12.2067 47.4356 12.0131C47.6001 11.004 47.0791 10.4926 45.8452 10.5202L31.4364 10.7137L37.4138 0.636582L61.4057 0.346293C62.996 0.33247 64.1751 0.733345 64.9428 1.54892C65.7106 2.36449 65.9848 3.48418 65.7517 4.9218C65.6557 5.5162 65.4227 6.22118 65.0799 7.00911L58.4581 21.8968L58.1291 22.6432Z" fill="#FF0000"/>
<path d="M70.7968 31.5869L61.1314 31.6975L57.9782 36.8121H67.6024L70.7968 31.5869Z" fill="#343434"/>
</g>
<defs>
<clipPath id="clip0_770_19311">
<rect width="170" height="47" fill="white"/>
</clipPath>
</defs>
</svg>
