<svg width="21" height="21" viewBox="0 0 21 21" fill="none" xmlns="http://www.w3.org/2000/svg">
<path d="M11.9529 13.3456C10.7459 14.2038 9.26053 14.5772 7.79119 14.3918C6.32185 14.2064 4.97578 13.4758 4.01975 12.3447C3.06372 11.2136 2.5675 9.76466 2.62944 8.28497C2.69138 6.80528 3.30696 5.40285 4.35417 4.35564C5.40139 3.30842 6.80381 2.69284 8.2835 2.6309C9.76319 2.56896 11.2122 3.06518 12.3432 4.02121C13.4743 4.97725 14.2049 6.32332 14.3903 7.79265C14.5757 9.26199 14.2023 10.7474 13.3442 11.9544L18.0862 16.6951C18.1829 16.7852 18.2605 16.8939 18.3143 17.0147C18.3681 17.1354 18.397 17.2658 18.3994 17.3979C18.4017 17.5301 18.3774 17.6614 18.3279 17.784C18.2784 17.9065 18.2047 18.0179 18.1112 18.1114C18.0177 18.2048 17.9064 18.2785 17.7838 18.328C17.6612 18.3775 17.53 18.4019 17.3978 18.3995C17.2656 18.3972 17.1353 18.3683 17.0145 18.3145C16.8938 18.2607 16.7851 18.1831 16.695 18.0864L11.9529 13.3456ZM12.4687 8.53137C12.4687 7.48708 12.0539 6.48556 11.3155 5.74714C10.577 5.00871 9.57551 4.59387 8.53122 4.59387C7.48693 4.59387 6.48541 5.00871 5.74699 5.74714C5.00856 6.48556 4.59372 7.48708 4.59372 8.53137C4.59372 9.57566 5.00856 10.5772 5.74699 11.3156C6.48541 12.054 7.48693 12.4689 8.53122 12.4689C9.57551 12.4689 10.577 12.054 11.3155 11.3156C12.0539 10.5772 12.4687 9.57566 12.4687 8.53137Z" fill="#828282"/>
</svg>
